<svg width="134" height="151" viewBox="0 0 134 151" fill="none" xmlns="http://www.w3.org/2000/svg">
<g clip-path="url(#clip0)">
<path d="M86.3864 2.00057C100.12 2.0145 109.305 2.3674 120.138 11.3075C124.379 14.6581 132 24.06 132 38.5491C132 55.4387 120.119 66.7428 114.048 75.5C123.474 86.6455 132 96.0301 132 109.882C132 123.679 128.302 130.373 120.138 138.134C111.975 145.895 102.342 149 87.1644 149H23.3282C12.1449 149 5.59464 145.975 3.6775 139.924C2.71893 137.218 2.23964 133.078 2.23964 127.505L2 23.0172C2 19.1959 2.11982 16.4095 2.35946 14.6581C2.59911 12.9067 3.35798 10.8368 4.63607 8.44846C6.87274 4.14949 13.1034 2 23.3282 2L86.3864 2.00057Z" fill="#5993C2" stroke="#11446C" stroke-width="3"/>
<path d="M48.55 104.45H94.75C97.05 104.45 98.75 104.55 99.85 104.75C101.05 104.85 102.4 105.3 103.9 106.1C106.6 107.5 107.95 111.4 107.95 117.8C107.95 124.8 106.1 128.9 102.4 130.1C100.7 130.7 98.1 131 94.6 131H35.2C28.2 131 24.1 129.1 22.9 125.3C22.3 123.7 22 121.15 22 117.65V34.25C22 29.15 22.95 25.7 24.85 23.9C26.75 22 30.35 21.05 35.65 21.05H94.75C97.05 21.05 98.75 21.15 99.85 21.35C101.05 21.45 102.4 21.9 103.9 22.7C106.6 24.1 107.95 28 107.95 34.4C107.95 41.4 106.1 45.5 102.4 46.7C100.7 47.3 98.1 47.6 94.6 47.6H48.55V62.75H78.25C80.55 62.75 82.25 62.85 83.35 63.05C84.55 63.15 85.9 63.6 87.4 64.4C90.1 65.8 91.45 69.7 91.45 76.1C91.45 83.1 89.55 87.2 85.75 88.4C84.05 89 81.45 89.3 77.95 89.3H48.55V104.45Z" fill="white"/>
<path d="M48.55 104.45H47.55V105.45H48.55V104.45ZM99.85 104.75L99.6711 105.734L99.7187 105.743L99.767 105.747L99.85 104.75ZM103.9 106.1L103.429 106.982L103.44 106.988L103.9 106.1ZM102.4 130.1L102.092 129.149L102.079 129.153L102.067 129.157L102.4 130.1ZM22.9 125.3L23.8536 124.999L23.8456 124.974L23.8363 124.949L22.9 125.3ZM24.85 23.9L25.5377 24.6259L25.5476 24.6167L25.5571 24.6071L24.85 23.9ZM99.85 21.35L99.6711 22.3339L99.7187 22.3425L99.767 22.3465L99.85 21.35ZM103.9 22.7L103.429 23.5824L103.44 23.5877L103.9 22.7ZM102.4 46.7L102.092 45.7488L102.079 45.7527L102.067 45.757L102.4 46.7ZM48.55 47.6V46.6H47.55V47.6H48.55ZM48.55 62.75H47.55V63.75H48.55V62.75ZM83.35 63.05L83.1711 64.0339L83.2187 64.0425L83.267 64.0465L83.35 63.05ZM87.4 64.4L86.9294 65.2824L86.9397 65.2877L87.4 64.4ZM85.75 88.4L85.4489 87.4464L85.4329 87.4514L85.4172 87.457L85.75 88.4ZM48.55 89.3V88.3H47.55V89.3H48.55ZM48.55 105.45H94.75V103.45H48.55V105.45ZM94.75 105.45C97.0389 105.45 98.6641 105.551 99.6711 105.734L100.029 103.766C98.8359 103.549 97.0611 103.45 94.75 103.45V105.45ZM99.767 105.747C100.788 105.832 102.004 106.222 103.429 106.982L104.371 105.218C102.796 104.378 101.312 103.868 99.933 103.753L99.767 105.747ZM103.44 106.988C104.491 107.533 105.371 108.606 105.993 110.402C106.617 112.206 106.95 114.657 106.95 117.8H108.95C108.95 114.543 108.608 111.844 107.882 109.748C107.154 107.644 106.009 106.067 104.36 105.212L103.44 106.988ZM106.95 117.8C106.95 124.749 105.105 128.171 102.092 129.149L102.709 131.051C107.095 129.629 108.95 124.851 108.95 117.8H106.95ZM102.067 129.157C100.533 129.699 98.0725 130 94.6 130V132C98.1275 132 100.867 131.701 102.733 131.043L102.067 129.157ZM94.6 130H35.2V132H94.6V130ZM35.2 130C28.266 130 24.8374 128.114 23.8536 124.999L21.9464 125.601C23.3626 130.086 28.134 132 35.2 132V130ZM23.8363 124.949C23.303 123.527 23 121.129 23 117.65H21C21 121.171 21.297 123.873 21.9637 125.651L23.8363 124.949ZM23 117.65V34.25H21V117.65H23ZM23 34.25C23 29.1938 23.9584 26.1222 25.5377 24.6259L24.1623 23.174C21.9416 25.2778 21 29.1062 21 34.25H23ZM25.5571 24.6071C27.1548 23.0094 30.3899 22.05 35.65 22.05V20.05C30.3101 20.05 26.3452 20.9906 24.1429 23.1929L25.5571 24.6071ZM35.65 22.05H94.75V20.05H35.65V22.05ZM94.75 22.05C97.0389 22.05 98.6641 22.1508 99.6711 22.3339L100.029 20.3661C98.8359 20.1492 97.0611 20.05 94.75 20.05V22.05ZM99.767 22.3465C100.788 22.4316 102.004 22.8219 103.429 23.5823L104.371 21.8176C102.796 20.9781 101.312 20.4684 99.933 20.3535L99.767 22.3465ZM103.44 23.5877C104.491 24.133 105.371 25.2062 105.993 27.0021C106.617 28.8055 106.95 31.257 106.95 34.4H108.95C108.95 31.143 108.608 28.4445 107.882 26.3479C107.154 24.2438 106.009 22.667 104.36 21.8122L103.44 23.5877ZM106.95 34.4C106.95 41.349 105.105 44.7713 102.092 45.7488L102.709 47.6512C107.095 46.2287 108.95 41.451 108.95 34.4H106.95ZM102.067 45.757C100.533 46.2986 98.0725 46.6 94.6 46.6V48.6C98.1275 48.6 100.867 48.3014 102.733 47.643L102.067 45.757ZM94.6 46.6H48.55V48.6H94.6V46.6ZM47.55 47.6V62.75H49.55V47.6H47.55ZM48.55 63.75H78.25V61.75H48.55V63.75ZM78.25 63.75C80.5389 63.75 82.1641 63.8508 83.1711 64.0339L83.5289 62.0661C82.3359 61.8492 80.5611 61.75 78.25 61.75V63.75ZM83.267 64.0465C84.2877 64.1316 85.5036 64.5219 86.9294 65.2823L87.8706 63.5176C86.2964 62.6781 84.8123 62.1684 83.433 62.0535L83.267 64.0465ZM86.9397 65.2877C87.9912 65.833 88.8708 66.9062 89.4925 68.7021C90.1168 70.5055 90.45 72.957 90.45 76.1H92.45C92.45 72.843 92.1082 70.1445 91.3825 68.0479C90.6542 65.9438 89.5088 64.367 87.8603 63.5122L86.9397 65.2877ZM90.45 76.1C90.45 83.034 88.5642 86.4626 85.4489 87.4464L86.0511 89.3536C90.5358 87.9374 92.45 83.166 92.45 76.1H90.45ZM85.4172 87.457C83.8828 87.9986 81.4225 88.3 77.95 88.3V90.3C81.4775 90.3 84.2173 90.0014 86.0828 89.343L85.4172 87.457ZM77.95 88.3H48.55V90.3H77.95V88.3ZM47.55 89.3V104.45H49.55V89.3H47.55Z" fill="#11446C"/>
</g>
<defs>
<clipPath id="clip0">
<rect width="134" height="151" fill="white"/>
</clipPath>
</defs>
</svg>
